<svg id="Layer_1" data-name="Layer 1" xmlns="http://www.w3.org/2000/svg" viewBox="0 0 72 72"><defs><style>.cls-1{fill:#fff;stroke:#fff;stroke-miterlimit:10;stroke-width:0.82px;}</style></defs><path class="cls-1" d="M36,6.31C17.91,6.31,3.25,18.23,3.25,32.92a23.64,23.64,0,0,0,7.29,16.73,32.67,32.67,0,0,1-7,12.25,1,1,0,0,0,0,1.44,1,1,0,0,0,.7.29,29.23,29.23,0,0,0,18-6.58A38.84,38.84,0,0,0,36,59.53c18.09,0,32.75-11.91,32.75-26.61S54.09,6.31,36,6.31Zm8.4,28.45a22.61,22.61,0,0,1-3.27,5.67c-.73,1-1.49,2-2.3,2.88a2.75,2.75,0,0,1-1.55,1,2.26,2.26,0,0,1-1.86-.72,26.09,26.09,0,0,1-2.31-2,27.67,27.67,0,0,1-3.79-4.7c-1.88-3-4.32-8.13-.55-10.74a4.38,4.38,0,0,1,4.2-.55c1.7.8,2.33,2.71,3.29,4.22a24.91,24.91,0,0,1,2.25-3.14,5.11,5.11,0,0,1,3.14-1.56l.2,0a.46.46,0,0,1,.21,0C46.27,25.4,45.36,32.16,44.4,34.76Z"/></svg>