<svg id="Layer_1" data-name="Layer 1" xmlns="http://www.w3.org/2000/svg" viewBox="0 0 72 72"><defs><style>.cls-1{fill:#fff;}</style></defs><g id="Group_3021" data-name="Group 3021"><path id="Icon_awesome-comment-medical" data-name="Icon awesome-comment-medical" class="cls-1" d="M27.34,14.8C14,14.8,3.11,23.62,3.11,34.49A17.49,17.49,0,0,0,8.5,46.86a24.06,24.06,0,0,1-5.18,9.06.75.75,0,0,0,0,1.07.76.76,0,0,0,.52.21,21.66,21.66,0,0,0,13.3-4.86,28.94,28.94,0,0,0,10.17,1.83c13.38,0,24.22-8.81,24.22-19.68S40.72,14.8,27.34,14.8Zm9.08,22a.76.76,0,0,1-.75.76h-5.3v5.3a.76.76,0,0,1-.76.75H25.07a.75.75,0,0,1-.76-.75V37.51H19a.75.75,0,0,1-.76-.75V32.22a.76.76,0,0,1,.76-.76h5.3v-5.3a.76.76,0,0,1,.76-.76h4.54a.76.76,0,0,1,.76.76v5.3h5.3a.76.76,0,0,1,.76.76Z"/><path id="Path_2927" data-name="Path 2927" class="cls-1" d="M41.87,52.92c.38-.13.87-.32,1.39-.52a21.9,21.9,0,0,0,3.35-1.69,18.28,18.28,0,0,0,5.56-25.25l0-.07a18.58,18.58,0,0,0-1.4-1.78c-.31-.34-.63-.68-1-1s-.73-.65-1.11-1l1.14.14A15.52,15.52,0,0,1,61.1,28.45a15.24,15.24,0,0,1,2.61,8.72c0,.45,0,.77.18.9l4.75,4.71a.82.82,0,0,1,.21.84.88.88,0,0,1-.35.47.72.72,0,0,1-.3.13l-6.4,1.5a1.62,1.62,0,0,0-.59.25,1.8,1.8,0,0,0-.49.5,19.13,19.13,0,0,1-4.81,4.77,17.47,17.47,0,0,1-14.17,2.52l-1.19-.42C41,53.23,41.42,53.08,41.87,52.92Z"/></g></svg>