<svg id="Layer_1" data-name="Layer 1" xmlns="http://www.w3.org/2000/svg" viewBox="0 0 72 72"><defs><style>.cls-1{fill:#fff;}</style></defs><path id="Icon_material-local-florist" data-name="Icon material-local-florist" class="cls-1" d="M37,65A23.56,23.56,0,0,0,60.55,41.48,23.56,23.56,0,0,0,37,65ZM20.24,34.28A6.55,6.55,0,0,0,30.5,39.67l-.05.5a6.55,6.55,0,0,0,13.09,0l-.06-.5a6.42,6.42,0,0,0,3.72,1.15A6.52,6.52,0,0,0,50,28.39a6.54,6.54,0,0,0-5.62-11.81,8.08,8.08,0,0,0-.9.52l.06-.49a6.55,6.55,0,1,0-13.09,0l.05.49A6.54,6.54,0,1,0,24,28.39,6.5,6.5,0,0,0,20.24,34.28ZM37,21.84a6.55,6.55,0,1,1-6.54,6.55A6.55,6.55,0,0,1,37,21.84ZM13.43,41.48A23.56,23.56,0,0,0,37,65,23.56,23.56,0,0,0,13.43,41.48Z"/></svg>