<svg id="Layer_1" data-name="Layer 1" xmlns="http://www.w3.org/2000/svg" viewBox="0 0 72 72"><defs><style>.cls-1{fill:#fff;stroke:#fff;stroke-miterlimit:10;stroke-width:0.82px;}</style></defs><path class="cls-1" d="M6.55,40.91A29.45,29.45,0,0,0,36,70.36,29.45,29.45,0,0,0,6.55,40.91Z"/><path class="cls-1" d="M36,70.36A29.45,29.45,0,0,0,65.45,40.91,29.45,29.45,0,0,0,36,70.36Z"/><path class="cls-1" d="M19.74,24.55a8.17,8.17,0,1,0,8.14,14.1l-.06.62a8.18,8.18,0,0,0,16.36,0l-.06-.62a8,8,0,0,0,4.64,1.44,8.16,8.16,0,0,0,3.5-15.54,8.17,8.17,0,1,0-7-14.76,8.84,8.84,0,0,0-1.12.65l.06-.62a8.18,8.18,0,0,0-16.36,0l.06.62A8.08,8.08,0,0,0,23.24,9a8.16,8.16,0,0,0-3.5,15.55Zm12.26-3a1.92,1.92,0,0,1,1.82-.24c.73.35,1,1.17,1.41,1.83a12,12,0,0,1,1-1.36,2.23,2.23,0,0,1,1.36-.67l.09,0h.09c1.81.13,1.42,3.05,1,4.18a9.67,9.67,0,0,1-1.42,2.45c-.31.42-.64.85-1,1.25a1.19,1.19,0,0,1-.67.43,1,1,0,0,1-.81-.31,10.27,10.27,0,0,1-1-.87,11.92,11.92,0,0,1-1.64-2C31.42,24.93,30.37,22.69,32,21.56Z"/></svg>