<svg id="Layer_1" data-name="Layer 1" xmlns="http://www.w3.org/2000/svg" viewBox="0 0 72 72"><defs><style>.cls-1{fill:#fff;stroke:#fff;stroke-miterlimit:10;stroke-width:0.93px;}</style></defs><path class="cls-1" d="M57.09,2.57a1.78,1.78,0,0,0-.72-.09,2.85,2.85,0,0,0-.71.12A17.86,17.86,0,0,0,44.74,8C41.58,11.26,39.5,15.31,36.89,19c-3.32-5.27-5.51-11.91-11.42-14.7C20.81,2.07,15,3.32,10.85,6.17c-13.11,9.1-4.62,27.08,1.92,37.37A93.16,93.16,0,0,0,26,59.9a92.29,92.29,0,0,0,8,7c2.05,1.59,3.76,3,6.48,2.48a9.33,9.33,0,0,0,5.4-3.5c2.81-3.19,5.45-6.61,8-10,4.56-6.07,8.74-12.58,11.38-19.74C68.56,27.12,71.72,3.6,57.09,2.57Z"/></svg>