<svg id="Layer_1" data-name="Layer 1" xmlns="http://www.w3.org/2000/svg" viewBox="0 0 72 72"><defs><style>.cls-1{fill:#fff;}</style></defs><path id="Icon_awesome-heartbeat" data-name="Icon awesome-heartbeat" class="cls-1" d="M44.87,36.05l-6.1,12.2a2,2,0,0,1-2.63.88,2,2,0,0,1-.92-1l-7-15.5-3.68,8.8H13l22.4,22.88a2.18,2.18,0,0,0,3.09.07l.06-.07L61,41.48H47.58ZM63.71,15.21l-.3-.31a16.07,16.07,0,0,0-22.73-.26l-.27.26L37,18.41l-3.42-3.49a16.06,16.06,0,0,0-22.71-.3l-.29.3-.29.29a16.84,16.84,0,0,0-.9,22.34H22L26.34,27a2,2,0,0,1,2.58-1,1.94,1.94,0,0,1,1,1L37.1,42.79l6-12a2,2,0,0,1,3.51,0L50,37.55H64.6A16.85,16.85,0,0,0,63.71,15.21Z"/></svg>