<svg id="Layer_1" data-name="Layer 1" xmlns="http://www.w3.org/2000/svg" viewBox="0 0 72 72"><defs><style>.cls-1{fill:#fff;stroke:#fff;stroke-miterlimit:10;stroke-width:0.93px;}</style></defs><path class="cls-1" d="M57.27,2.28a1.66,1.66,0,0,0-.73-.08,2.45,2.45,0,0,0-.71.12,18,18,0,0,0-11,5.47,55.59,55.59,0,0,0-6.32,8.67,1.78,1.78,0,0,1-3-.1c-2.65-4.78-5-10-10.07-12.37-4.7-2.21-10.61-1-14.74,1.92C.15,13.19,3.36,26.11,8.43,36.32a1.77,1.77,0,0,0,1.59,1h7.49a1.79,1.79,0,0,0,1.64-1.09l5.37-12.93a2.61,2.61,0,0,1,4.78-.06l7.94,17.61a1.78,1.78,0,0,0,3.21.06l6.29-12.57a2.59,2.59,0,0,1,4.65,0l4,8a1.78,1.78,0,0,0,1.59,1h6.86a1.74,1.74,0,0,0,1.64-1.12h0C68.83,27,72,3.32,57.27,2.28Z"/><path class="cls-1" d="M52.38,41.92,50,37.17a1,1,0,0,0-1.86,0L41,51.47a2.6,2.6,0,0,1-4.7-.1L28,33a1,1,0,0,0-1.91,0l-3.69,8.82a1.05,1.05,0,0,1-1,.64H11.88l.69,1.11a94.65,94.65,0,0,0,13.3,16.5A93.56,93.56,0,0,0,34,67.2c2.07,1.61,3.79,3,6.54,2.51a9.44,9.44,0,0,0,5.44-3.53C48.77,63,51.43,59.51,54,56.07a96.9,96.9,0,0,0,7.87-12A1,1,0,0,0,61,42.5H53.31A1,1,0,0,1,52.38,41.92Z"/></svg>