<svg id="Layer_1" data-name="Layer 1" xmlns="http://www.w3.org/2000/svg" viewBox="0 0 72 72"><defs><style>.cls-1{fill:#fff;}</style></defs><path id="Icon_ionic-ios-heart-half" data-name="Icon ionic-ios-heart-half" class="cls-1" d="M48.77,13h-.12A14,14,0,0,0,37,19.39,14,14,0,0,0,25.33,13h-.12A13.86,13.86,0,0,0,11.47,26.87a29.83,29.83,0,0,0,5.86,16.29C24.72,53.26,37,62.09,37,62.09s12.27-8.83,19.66-18.93a29.92,29.92,0,0,0,5.87-16.29A13.88,13.88,0,0,0,48.77,13Zm5.11,28.12A91.19,91.19,0,0,1,38.59,56.51a1,1,0,0,1-1.38-.15,1,1,0,0,1-.22-.61V30.5a16.69,16.69,0,0,1,2.86-9.2l0,0a10.78,10.78,0,0,1,3.74-3.49,10.23,10.23,0,0,1,5-1.33h.11A10.41,10.41,0,0,1,59.09,26.88a26.63,26.63,0,0,1-5.21,14.25Z"/></svg>