<svg id="Layer_1" data-name="Layer 1" xmlns="http://www.w3.org/2000/svg" viewBox="0 0 72 72"><defs><style>.cls-1{fill:#fff;stroke:#fff;stroke-miterlimit:10;stroke-width:0.82px;}</style></defs><path class="cls-1" d="M57.09,2.57a1.78,1.78,0,0,0-.72-.09,2.85,2.85,0,0,0-.71.12A17.86,17.86,0,0,0,44.74,8C41.58,11.26,39.5,15.31,36.89,19c-3.32-5.27-5.51-11.91-11.42-14.7C20.81,2.07,15,3.32,10.85,6.17c-13.11,9.1-4.62,27.08,1.92,37.37A93.16,93.16,0,0,0,26,59.9a92.29,92.29,0,0,0,8,7c2.05,1.59,3.76,3,6.48,2.48a9.33,9.33,0,0,0,5.4-3.5c2.81-3.19,5.45-6.61,8-10,4.56-6.07,8.74-12.58,11.38-19.74C68.56,27.12,71.72,3.6,57.09,2.57Zm4.48,31.51a62.41,62.41,0,0,1-8.78,15.6c-2,2.69-6.31,8.08-8.48,10.6-1.15,1.34-4.1,2.2-4.43-.27-.27-2,.56-25.65,0-34.74a9.51,9.51,0,0,1,1.45-5.72,37.84,37.84,0,0,1,4.39-6.11C48,11,50.9,7.94,54.18,7.55a1.64,1.64,0,0,1,.54-.09,1.36,1.36,0,0,1,.56.06C66.57,8.34,64.13,26.93,61.57,34.08Z"/></svg>